<svg width="49" height="49" viewBox="0 0 49 49" fill="none" xmlns="http://www.w3.org/2000/svg">
<g clip-path="url(#clip0_311_451)">
<path d="M42.4915 19.0775C42.2362 17.7481 41.7241 16.4814 40.984 15.348C40.2438 14.2118 39.2921 13.2283 38.1808 12.4512C37.0289 11.6432 35.7279 11.0722 34.3535 10.7711C32.4263 10.3443 30.4291 10.4556 28.5743 11.0905C28.1306 11.2424 27.7012 11.4221 27.2862 11.6295C26.9975 11.2662 26.6842 10.9221 26.3461 10.597C24.9328 9.2383 23.1694 8.29413 21.2421 7.86731C19.8544 7.55996 18.4507 7.52796 17.0634 7.77433C15.7233 8.01067 14.4551 8.49668 13.2992 9.21668C12.1487 9.93021 11.1494 10.8626 10.358 11.9609C9.53496 13.1032 8.96045 14.3826 8.65483 15.7625C8.36653 17.0643 8.33194 18.4796 8.55406 19.9765C8.7404 21.2275 9.10876 22.564 9.65044 23.9511C10.5093 26.1467 11.8308 28.5308 13.5723 31.0367C16.4581 35.1903 19.5381 38.3002 19.6698 38.4278L20.4647 39.2271C20.8171 39.58 21.3449 39.6968 21.8133 39.5258L22.8714 39.1368C23.0455 39.0728 27.1458 37.5573 31.5194 35.0114C34.1561 33.4752 36.3607 31.872 38.0663 30.2444C39.143 29.2156 40.0451 28.1605 40.7384 27.1043C41.5717 25.8412 42.138 24.5436 42.4263 23.2419C42.7358 21.8628 42.7552 20.4605 42.4915 19.0775Z" fill="#E56399" fill-opacity="0.5"/>
</g>
<defs>
<clipPath id="clip0_311_451">
<rect width="41" height="41" fill="white" transform="translate(8.86523) rotate(12.4877)"/>
</clipPath>
</defs>
</svg>
