<svg width="151" height="151" viewBox="0 0 151 151" fill="none" xmlns="http://www.w3.org/2000/svg">
<g clip-path="url(#clip0_311_453)">
<path d="M72.9024 68.0298C55.1993 73.6421 38.7755 108.967 44.2522 126.242C46.7187 134.022 54.1692 136.775 64.1855 133.6C75.0735 130.148 80.4905 122.278 89.2228 119.509C98.0308 116.717 107.013 120.022 117.805 116.601C127.822 113.426 132.325 106.883 129.858 99.1023C124.382 81.8272 90.6054 62.4174 72.9024 68.0298ZM39.1777 75.6277C34.4103 68.6381 25.6816 65.9 19.6817 69.5097C13.6818 73.1194 12.6838 81.711 17.4512 88.7006C22.2186 95.6902 30.9473 98.4283 36.9472 94.8186C42.9471 91.209 43.9451 82.6173 39.1777 75.6277ZM56.5959 65.0075C62.9181 61.0062 63.4148 50.5935 57.7066 41.7506C51.9983 32.9077 42.2464 28.9851 35.9242 32.9865C29.602 36.9878 29.1052 47.4005 34.8135 56.2434C40.5217 65.0863 50.2766 69.0104 56.5959 65.0075ZM117.253 38.5793C110.269 39.0858 104.715 46.3521 104.843 54.8124C104.974 63.2721 110.739 69.7194 117.723 69.213C124.707 68.7065 130.261 61.4401 130.133 52.9798C130.003 44.5202 124.237 38.0728 117.253 38.5793ZM84.4892 56.1646C91.962 55.7926 97.6727 46.9679 97.2434 36.4514C96.8142 25.9349 90.4097 17.7126 82.9362 18.0824C75.4626 18.4522 69.7527 27.2791 70.1819 37.7956C70.6111 48.3121 77.0163 56.5366 84.4892 56.1646Z" fill="#FFE1CB" fill-opacity="0.5"/>
</g>
<defs>
<clipPath id="clip0_311_453">
<rect width="119.74" height="119.74" fill="white" transform="translate(0 36.1859) rotate(-17.59)"/>
</clipPath>
</defs>
</svg>
